<svg id="SPACE_logo" xmlns="http://www.w3.org/2000/svg" width="233.158" height="72" viewBox="0 0 233.158 72">
  <g id="Group_1" data-name="Group 1">
    <path id="Path_1" data-name="Path 1" d="M660,489.988l4.465-10.658a27.7,27.7,0,0,0,15.194,4.249c1.44,0,5.617-.432,5.617-2.881,0-2.232-2.952-2.592-5.617-3.24-9-2.017-18.435-5.473-18.435-15.987,0-9.721,8.857-14.114,18.435-14.114a33.994,33.994,0,0,1,18.074,4.752L693.125,462.7c-2.736-1.872-8.93-3.384-13.466-3.384-1.152,0-4.177.288-4.177,2.16,0,1.656,1.728,2.376,4.177,2.953,6.985,1.512,19.875,4.32,19.875,16.274,0,10.658-10.225,14.906-19.875,14.906C666.553,495.605,661.44,490.565,660,489.988Z" transform="translate(-660 -447.359)" fill="#00b1a7"/>
    <path id="Path_2" data-name="Path 2" d="M783.781,449.212h20.594c14.33,0,21.675,8.281,21.675,18.434s-7.345,18.435-21.747,18.435h-6.841v9.793H783.781Zm20.883,25.275a6.841,6.841,0,1,0,.072-13.682h-7.273v13.682Z" transform="translate(-735.68 -448.492)" fill="#00b1a7"/>
    <path id="Path_3" data-name="Path 3" d="M903.372,495.874H889.4l18.867-46.662h14.114l18.867,46.662h-13.97l-11.954-32.448Z" transform="translate(-800.257 -448.492)" fill="#00b1a7"/>
    <path id="Path_4" data-name="Path 4" d="M1028.009,471.41c0-13.322,9.865-24.051,24.7-24.051,7.129,0,13.538,2.52,17.786,6.769l-9,9.289c-3.312-3.385-5.977-3.673-8.209-3.673-6.049,0-11.018,4.9-11.018,11.666,0,6.913,4.608,11.809,11.018,11.809a12.2,12.2,0,0,0,9.937-5.185l8.713,9.577c-4.68,5.185-11.234,7.993-19.227,7.993C1037.874,495.605,1028.009,484.876,1028.009,471.41Z" transform="translate(-885.002 -447.359)" fill="#00b1a7"/>
    <rect id="Rectangle_1" data-name="Rectangle 1" width="39.53" height="11.593" transform="translate(193.628 0.72)" fill="#00b1a7"/>
    <rect id="Rectangle_2" data-name="Rectangle 2" width="39.529" height="11.593" transform="translate(193.628 18.254)" fill="#00b1a7"/>
    <rect id="Rectangle_3" data-name="Rectangle 3" width="39.53" height="11.593" transform="translate(193.628 35.789)" fill="#00b1a7"/>
  </g>
  <g id="Group_2" data-name="Group 2" transform="translate(0 59.362)">
    <path id="Path_5" data-name="Path 5" d="M660,601.187h1.23v9.963H660Z" transform="translate(-660 -600.772)" fill="#00b1a7"/>
    <path id="Path_6" data-name="Path 6" d="M670.229,607.315H671.4v1.276a2.925,2.925,0,0,1,2.6-1.43c1.875,0,2.706,1.138,2.706,3.106V614.8h-1.169V610.42c0-1.384-.507-2.122-1.86-2.122a2.245,2.245,0,0,0-2.276,2.291V614.8h-1.168Z" transform="translate(-666.254 -604.424)" fill="#00b1a7"/>
    <path id="Path_7" data-name="Path 7" d="M692.419,609.921v-4.274H691.3v-.969h1.122v-1.614l1.168-.216v1.83h2.552v.969h-2.552v4.3c0,1.03.446,1.322,1.046,1.322a2.231,2.231,0,0,0,1.23-.415l.384.907a3.079,3.079,0,0,1-1.722.553C693.2,612.319,692.419,611.673,692.419,609.921Z" transform="translate(-679.135 -601.788)" fill="#00b1a7"/>
    <path id="Path_8" data-name="Path 8" d="M706.962,611.066a3.8,3.8,0,0,1,3.767-3.905,3.712,3.712,0,0,1,3.582,3.859c0,.215-.031.446-.031.461h-6.1a2.678,2.678,0,0,0,2.721,2.429,3.682,3.682,0,0,0,2.306-.8l.508.861a4.579,4.579,0,0,1-2.829.984A3.8,3.8,0,0,1,706.962,611.066Zm6.2-.477a2.519,2.519,0,0,0-2.49-2.383,2.56,2.56,0,0,0-2.49,2.383Z" transform="translate(-688.713 -604.424)" fill="#00b1a7"/>
    <path id="Path_9" data-name="Path 9" d="M730.54,600.792h1.168v10.116H730.54Z" transform="translate(-703.128 -600.531)" fill="#00b1a7"/>
    <path id="Path_10" data-name="Path 10" d="M739.005,600.792h1.169v10.116h-1.169Z" transform="translate(-708.304 -600.531)" fill="#00b1a7"/>
    <path id="Path_11" data-name="Path 11" d="M747,600.9a.774.774,0,0,1,.769-.784.788.788,0,0,1,.784.784.774.774,0,0,1-.784.769A.761.761,0,0,1,747,600.9Zm.184,2.106h1.168V610.5H747.18Z" transform="translate(-713.19 -600.119)" fill="#00b1a7"/>
    <path id="Path_12" data-name="Path 12" d="M755.883,615.955l.492-.753a3.364,3.364,0,0,0,2.352.937,2.671,2.671,0,0,0,2.721-3V612.9a2.852,2.852,0,0,1-2.8,1.537,3.639,3.639,0,0,1,0-7.272,2.982,2.982,0,0,1,2.844,1.522v-1.368h1.122v5.8a3.631,3.631,0,0,1-3.8,3.951A4.077,4.077,0,0,1,755.883,615.955Zm5.566-5.243a2.554,2.554,0,1,0-2.568,2.675A2.52,2.52,0,0,0,761.449,610.712Z" transform="translate(-718.172 -604.424)" fill="#00b1a7"/>
    <path id="Path_13" data-name="Path 13" d="M779.038,611.066a3.8,3.8,0,0,1,3.767-3.905,3.712,3.712,0,0,1,3.582,3.859c0,.215-.031.446-.031.461h-6.1a2.679,2.679,0,0,0,2.721,2.429,3.682,3.682,0,0,0,2.306-.8l.508.861a4.58,4.58,0,0,1-2.829.984A3.8,3.8,0,0,1,779.038,611.066Zm6.2-.477a2.518,2.518,0,0,0-2.49-2.383,2.561,2.561,0,0,0-2.491,2.383Z" transform="translate(-732.78 -604.424)" fill="#00b1a7"/>
    <path id="Path_14" data-name="Path 14" d="M802.616,607.315h1.169v1.276a2.924,2.924,0,0,1,2.6-1.43c1.876,0,2.706,1.138,2.706,3.106V614.8H807.92V610.42c0-1.384-.508-2.122-1.861-2.122a2.245,2.245,0,0,0-2.275,2.291V614.8h-1.169Z" transform="translate(-747.196 -604.424)" fill="#00b1a7"/>
    <path id="Path_15" data-name="Path 15" d="M824.806,609.921v-4.274h-1.123v-.969h1.123v-1.614l1.168-.216v1.83h2.552v.969h-2.552v4.3c0,1.03.446,1.322,1.046,1.322a2.231,2.231,0,0,0,1.23-.415l.384.907a3.08,3.08,0,0,1-1.722.553C825.589,612.319,824.806,611.673,824.806,609.921Z" transform="translate(-760.076 -601.788)" fill="#00b1a7"/>
    <path id="Path_16" data-name="Path 16" d="M849.649,611.066a3.8,3.8,0,0,1,3.767-3.905A3.712,3.712,0,0,1,857,611.02c0,.215-.031.446-.031.461h-6.1a2.678,2.678,0,0,0,2.721,2.429,3.682,3.682,0,0,0,2.306-.8l.507.861a4.579,4.579,0,0,1-2.829.984A3.8,3.8,0,0,1,849.649,611.066Zm6.2-.477a2.519,2.519,0,0,0-2.49-2.383,2.56,2.56,0,0,0-2.49,2.383Z" transform="translate(-775.952 -604.424)" fill="#00b1a7"/>
    <path id="Path_17" data-name="Path 17" d="M873.763,605.912a5.21,5.21,0,0,1,8.625-3.844l-.722.83a4.033,4.033,0,1,0,.215,5.812l.769.845a5.174,5.174,0,0,1-3.69,1.507A5.094,5.094,0,0,1,873.763,605.912Z" transform="translate(-790.695 -600.531)" fill="#00b1a7"/>
    <path id="Path_18" data-name="Path 18" d="M899.476,611.066a3.936,3.936,0,1,1,3.936,3.889A3.889,3.889,0,0,1,899.476,611.066Zm6.673,0a2.737,2.737,0,1,0-2.737,2.752A2.693,2.693,0,0,0,906.149,611.066Z" transform="translate(-806.417 -604.424)" fill="#00b1a7"/>
    <path id="Path_19" data-name="Path 19" d="M924.4,607.315h1.168v1.292a2.745,2.745,0,0,1,2.4-1.445,2.289,2.289,0,0,1,2.4,1.584,2.959,2.959,0,0,1,2.583-1.584c1.8,0,2.752,1.046,2.752,3.106V614.8h-1.184V610.42c0-1.276-.446-2.122-1.814-2.122a2.058,2.058,0,0,0-2.06,2.137V614.8h-1.184V610.42c0-1.276-.446-2.122-1.8-2.122a2.124,2.124,0,0,0-2.091,2.2V614.8H924.4Z" transform="translate(-821.654 -604.424)" fill="#00b1a7"/>
    <path id="Path_20" data-name="Path 20" d="M958.577,607.315h1.169v1.292a2.744,2.744,0,0,1,2.4-1.445,2.29,2.29,0,0,1,2.4,1.584,2.959,2.959,0,0,1,2.583-1.584c1.8,0,2.752,1.046,2.752,3.106V614.8h-1.184V610.42c0-1.276-.446-2.122-1.814-2.122a2.058,2.058,0,0,0-2.06,2.137V614.8h-1.184V610.42c0-1.276-.446-2.122-1.8-2.122a2.124,2.124,0,0,0-2.091,2.2V614.8h-1.169Z" transform="translate(-842.551 -604.424)" fill="#00b1a7"/>
    <path id="Path_21" data-name="Path 21" d="M991.965,611.066a3.8,3.8,0,0,1,3.767-3.905,3.712,3.712,0,0,1,3.583,3.859c0,.215-.031.446-.031.461h-6.1a2.679,2.679,0,0,0,2.721,2.429,3.683,3.683,0,0,0,2.306-.8l.507.861a4.58,4.58,0,0,1-2.829.984A3.8,3.8,0,0,1,991.965,611.066Zm6.2-.477a2.519,2.519,0,0,0-2.491-2.383,2.561,2.561,0,0,0-2.49,2.383Z" transform="translate(-862.965 -604.424)" fill="#00b1a7"/>
    <path id="Path_22" data-name="Path 22" d="M1015.542,607.315h1.169V608.9a2.97,2.97,0,0,1,2.89-1.737v1.276a2.616,2.616,0,0,0-2.89,2.814V614.8h-1.169Z" transform="translate(-877.38 -604.424)" fill="#00b1a7"/>
    <path id="Path_23" data-name="Path 23" d="M1028.676,611.066a3.889,3.889,0,0,1,3.936-3.905,3.994,3.994,0,0,1,2.675,1l-.738.83a2.79,2.79,0,0,0-1.922-.692,2.76,2.76,0,1,0,.031,5.52,3.019,3.019,0,0,0,2.137-.846l.677.876a4.114,4.114,0,0,1-2.86,1.107A3.875,3.875,0,0,1,1028.676,611.066Z" transform="translate(-885.41 -604.424)" fill="#00b1a7"/>
    <path id="Path_24" data-name="Path 24" d="M1048.93,611.066a3.8,3.8,0,0,1,3.767-3.905,3.712,3.712,0,0,1,3.582,3.859c0,.215-.031.446-.031.461h-6.1a2.679,2.679,0,0,0,2.721,2.429,3.682,3.682,0,0,0,2.306-.8l.507.861a4.58,4.58,0,0,1-2.829.984A3.8,3.8,0,0,1,1048.93,611.066Zm6.2-.477a2.518,2.518,0,0,0-2.49-2.383,2.561,2.561,0,0,0-2.491,2.383Z" transform="translate(-897.793 -604.424)" fill="#00b1a7"/>
    <path id="Path_25" data-name="Path 25" d="M1082.2,601.187h1.092l2.429,3.383c.522.737,1.614,2.306,1.614,2.306s1.092-1.553,1.614-2.291l2.429-3.4h1.092v9.963h-1.23v-7.887a12.264,12.264,0,0,1-.738,1.137l-3.167,4.459-3.182-4.49c-.446-.63-.723-1.107-.723-1.107v7.887h-1.23Z" transform="translate(-918.133 -600.772)" fill="#00b1a7"/>
    <path id="Path_26" data-name="Path 26" d="M1113.726,611.066a3.632,3.632,0,0,1,3.536-3.905,3.11,3.11,0,0,1,2.814,1.461v-1.307h1.168V614.8h-1.168V613.5a3.079,3.079,0,0,1-2.814,1.46A3.636,3.636,0,0,1,1113.726,611.066Zm6.35,0a2.581,2.581,0,1,0-2.552,2.752A2.629,2.629,0,0,0,1120.076,611.066Z" transform="translate(-937.409 -604.424)" fill="#00b1a7"/>
    <path id="Path_27" data-name="Path 27" d="M1138.53,607.315h1.168V608.9a2.971,2.971,0,0,1,2.891-1.737v1.276a2.616,2.616,0,0,0-2.891,2.814V614.8h-1.168Z" transform="translate(-952.575 -604.424)" fill="#00b1a7"/>
    <path id="Path_28" data-name="Path 28" d="M1152.85,600.792h1.168v6.81l3.659-4.182h1.476l-2.982,3.321,3.49,4.167h-1.445l-2.768-3.352-1.43,1.614v1.738h-1.168Z" transform="translate(-961.33 -600.531)" fill="#00b1a7"/>
    <path id="Path_29" data-name="Path 29" d="M1171.759,611.066a3.8,3.8,0,0,1,3.767-3.905,3.712,3.712,0,0,1,3.582,3.859c0,.215-.031.446-.031.461h-6.1a2.679,2.679,0,0,0,2.721,2.429,3.681,3.681,0,0,0,2.306-.8l.508.861a4.58,4.58,0,0,1-2.829.984A3.8,3.8,0,0,1,1171.759,611.066Zm6.2-.477a2.519,2.519,0,0,0-2.491-2.383,2.561,2.561,0,0,0-2.49,2.383Z" transform="translate(-972.891 -604.424)" fill="#00b1a7"/>
    <path id="Path_30" data-name="Path 30" d="M1194.6,609.921v-4.274h-1.122v-.969h1.122v-1.614l1.169-.216v1.83h2.552v.969h-2.552v4.3c0,1.03.446,1.322,1.045,1.322a2.23,2.23,0,0,0,1.23-.415l.384.907a3.076,3.076,0,0,1-1.722.553C1195.384,612.319,1194.6,611.673,1194.6,609.921Z" transform="translate(-986.17 -601.788)" fill="#00b1a7"/>
    <path id="Path_31" data-name="Path 31" d="M1209.7,600.9a.774.774,0,0,1,.769-.784.788.788,0,0,1,.784.784.774.774,0,0,1-.784.769A.761.761,0,0,1,1209.7,600.9Zm.185,2.106h1.168V610.5h-1.168Z" transform="translate(-996.086 -600.119)" fill="#00b1a7"/>
    <path id="Path_32" data-name="Path 32" d="M1219.767,607.315h1.168v1.276a2.925,2.925,0,0,1,2.6-1.43c1.876,0,2.706,1.138,2.706,3.106V614.8h-1.168V610.42c0-1.384-.507-2.122-1.86-2.122a2.245,2.245,0,0,0-2.276,2.291V614.8h-1.168Z" transform="translate(-1002.243 -604.424)" fill="#00b1a7"/>
    <path id="Path_33" data-name="Path 33" d="M1241.51,615.955l.492-.753a3.364,3.364,0,0,0,2.352.937,2.671,2.671,0,0,0,2.721-3V612.9a2.85,2.85,0,0,1-2.8,1.537,3.639,3.639,0,0,1,0-7.272,2.983,2.983,0,0,1,2.844,1.522v-1.368h1.122v5.8a3.631,3.631,0,0,1-3.8,3.951A4.078,4.078,0,0,1,1241.51,615.955Zm5.566-5.243a2.554,2.554,0,1,0-2.568,2.675A2.52,2.52,0,0,0,1247.076,610.712Z" transform="translate(-1015.086 -604.424)" fill="#00b1a7"/>
  </g>
</svg>
